<svg width="30" height="31" viewBox="0 0 30 31" fill="none" xmlns="http://www.w3.org/2000/svg">
<g id="Layer 2">
<path id="Vector" d="M14.9473 12C18.261 12 20.9473 9.31371 20.9473 6C20.9473 2.68629 18.261 0 14.9473 0C11.6336 0 8.94727 2.68629 8.94727 6C8.94727 9.31371 11.6336 12 14.9473 12Z" fill="#64748B"/>
<path id="Vector_2" d="M29.807 25.88C29.1846 23.0463 27.7575 20.4525 25.697 18.41C25.1969 17.9081 24.655 17.4498 24.077 17.04C21.4451 15.0658 18.237 14.0116 14.947 14.04C10.9242 14.0194 7.05633 15.5903 4.18702 18.41C2.12653 20.4525 0.699403 23.0463 0.0770224 25.88C-0.0311567 26.3811 -0.0253131 26.9001 0.0941212 27.3986C0.213555 27.8971 0.443525 28.3624 0.767022 28.76C1.10205 29.1662 1.52393 29.4921 2.00159 29.7136C2.47926 29.9351 3.00053 30.0467 3.52702 30.04H26.367C26.8951 30.0403 27.4164 29.9219 27.8924 29.6934C28.3685 29.4649 28.787 29.1322 29.117 28.72C29.4347 28.327 29.6614 27.8685 29.7807 27.3774C29.9 26.8864 29.909 26.375 29.807 25.88Z" fill="#64748B"/>
</g>
</svg>
