<svg width="30" height="30" viewBox="0 0 30 30" fill="none" xmlns="http://www.w3.org/2000/svg">
<path d="M19.2803 6.21967C18.9874 5.92678 18.5125 5.92678 18.2196 6.21967C17.9267 6.51256 17.9267 6.98744 18.2196 7.28033L19.6893 8.75001L18.2196 10.2197C17.9268 10.5126 17.9268 10.9874 18.2196 11.2803C18.5125 11.5732 18.9874 11.5732 19.2803 11.2803L20.75 9.81067L22.2196 11.2803C22.5125 11.5732 22.9874 11.5732 23.2803 11.2803C23.5732 10.9874 23.5732 10.5125 23.2803 10.2197L21.8106 8.75001L23.2803 7.28035C23.5732 6.98745 23.5732 6.51258 23.2803 6.21969C22.9874 5.92679 22.5125 5.92679 22.2196 6.21969L20.75 7.68935L19.2803 6.21967Z" fill="#EF4444"/>
<path fill-rule="evenodd" clip-rule="evenodd" d="M13.4425 7.70067C12.2727 5.60455 9.43752 5.47683 7.75745 7.1569C6.85879 8.05556 6.0603 9.25048 6.00706 10.6547C5.92818 12.7356 6.46556 16.1908 9.88735 19.6126C13.3091 23.0344 16.7644 23.5718 18.8453 23.4929C20.2495 23.4397 21.4444 22.6412 22.3431 21.7425C24.0231 20.0625 23.8954 17.2273 21.7993 16.0575L20.6364 15.4085C19.2676 14.6446 17.5405 14.9701 16.4085 16.0884C16.3881 16.1033 16.2731 16.1823 16.0721 16.1921C15.8156 16.2045 15.2229 16.1133 14.3048 15.1952C13.3864 14.2767 13.2954 13.6839 13.3079 13.4276C13.3177 13.2268 13.3967 13.1119 13.4116 13.0915C14.5299 11.9595 14.8554 10.2324 14.0915 8.8636L13.4425 7.70067ZM8.81811 8.21756C9.92394 7.11173 11.5336 7.35832 12.1327 8.43167L12.7817 9.5946C13.1854 10.318 13.0477 11.3342 12.3344 12.0475C12.2647 12.1171 11.8485 12.5628 11.8097 13.3543C11.77 14.1646 12.134 15.1456 13.2442 16.2558C14.354 17.3657 15.3347 17.7297 16.145 17.6903C16.9364 17.6518 17.3822 17.2358 17.4523 17.1658C18.1656 16.4525 19.182 16.3146 19.9054 16.7183L21.0683 17.3673C22.1416 17.9663 22.3882 19.576 21.2824 20.6819C20.5071 21.4572 19.6513 21.9613 18.7885 21.994C17.0531 22.0598 14.0274 21.6313 10.948 18.552C7.86864 15.4726 7.4402 12.4468 7.50599 10.7115C7.5387 9.84872 8.04276 8.99291 8.81811 8.21756Z" fill="#EF4444"/>
</svg>
