<svg width="30" height="30" viewBox="0 0 30 30" fill="none" xmlns="http://www.w3.org/2000/svg">
    <path
        d="M19.5827 14.6492C19.8171 14.7661 20.1686 14.7661 20.52 14.7661C22.629 14.7661 24.3864 13.0129 24.3864 10.909C24.3864 8.80508 22.629 7.05183 20.52 7.05183C20.4029 7.05183 20.4029 7.05183 20.2857 7.05183C20.9887 7.9869 21.3402 9.15573 21.3402 10.4414C21.3402 11.9609 20.7544 13.4804 19.5827 14.6492Z"
        fill="#494E51" />
    <path
        d="M22.0431 16.2858H21.223C22.7461 17.4546 23.6834 19.3247 23.6834 21.4286C23.6834 21.8962 23.5663 22.3637 23.4491 22.8312C24.6207 22.5975 25.3237 22.3637 25.7924 22.1299C26.261 21.8962 26.4953 21.3117 26.4953 20.7273C26.6125 18.2728 24.5036 16.2858 22.0431 16.2858Z"
        fill="#494E51" />
    <path
        d="M9.97535 14.7663C10.3268 14.7663 10.5612 14.7663 10.9127 14.6494C9.85819 13.4806 9.15521 12.078 9.15521 10.3247C9.15521 9.03902 9.5067 7.87019 10.2097 6.93512C10.2097 6.93512 10.0925 6.93512 9.97535 6.93512C7.86641 6.93512 6.10896 8.68837 6.10896 10.7923C6.10896 12.8962 7.74925 14.7663 9.97535 14.7663Z"
        fill="#494E51" />
    <path
        d="M9.15518 16.2858H8.4522C5.99177 16.2858 4 18.2728 4 20.7273C4 21.3117 4.23433 21.8962 4.70298 22.1299C5.17163 22.3637 5.87461 22.7143 7.04624 22.8312C6.92908 22.3637 6.81192 21.8962 6.81192 21.4286C6.81192 19.4416 7.63206 17.5715 9.15518 16.2858Z"
        fill="#494E51" />
    <path
        d="M12.553 13.7143C13.256 14.2987 14.1933 14.6494 15.2477 14.6494C16.3022 14.6494 17.2395 14.2987 17.9425 13.7143C18.997 12.8961 19.5828 11.7273 19.5828 10.3247C19.5828 9.27273 19.2313 8.22078 18.5283 7.51948C17.7082 6.58442 16.5365 6 15.2477 6C13.9589 6 12.6701 6.58442 11.9672 7.51948C11.2642 8.22078 10.7955 9.27273 10.7955 10.3247C10.7955 11.7273 11.4985 12.8961 12.553 13.7143Z"
        fill="#494E51" />
    <path
        d="M17.5908 16.5195C17.3565 16.5195 17.1222 16.5195 16.8878 16.5195H13.3729C13.1386 16.5195 12.9043 16.5195 12.67 16.5195C10.2095 16.8701 8.33493 18.974 8.33493 21.4286C8.33493 22.1299 8.68642 22.7143 9.15507 22.9481C9.97522 23.4156 11.6155 24 15.0132 24C18.411 24 20.0513 23.4156 20.8714 22.9481C21.4572 22.5974 21.6915 22.013 21.6915 21.4286C22.043 18.974 20.0513 16.8701 17.5908 16.5195Z"
        fill="#494E51" />
</svg>