<svg width="30" height="30" viewBox="0 0 30 30" fill="none" xmlns="http://www.w3.org/2000/svg">
<path fill-rule="evenodd" clip-rule="evenodd" d="M13.4425 7.69917C12.2727 5.60304 9.43752 5.47533 7.75745 7.15539C6.85879 8.05405 6.0603 9.24897 6.00706 10.6532C5.92818 12.7341 6.46556 16.1893 9.88735 19.6111C13.3091 23.0329 16.7644 23.5703 18.8453 23.4914C20.2495 23.4382 21.4444 22.6397 22.3431 21.741C24.0231 20.0609 23.8954 17.2258 21.7993 16.056L20.6364 15.407C19.2676 14.6431 17.5405 14.9686 16.4085 16.0869C16.3881 16.1018 16.2731 16.1808 16.0721 16.1906C15.8156 16.203 15.2229 16.1118 14.3048 15.1936C13.3864 14.2752 13.2954 13.6824 13.3079 13.4261C13.3177 13.2253 13.3967 13.1104 13.4116 13.09C14.5299 11.958 14.8554 10.2309 14.0915 8.8621L13.4425 7.69917ZM8.81811 8.21605C9.92394 7.11022 11.5336 7.35682 12.1327 8.43016L12.7817 9.59309C13.1854 10.3165 13.0477 11.3326 12.3344 12.046C12.2647 12.1156 11.8485 12.5612 11.8097 13.3528C11.77 14.1631 12.134 15.1441 13.2442 16.2543C14.354 17.3642 15.3347 17.7282 16.145 17.6888C16.9364 17.6503 17.3822 17.2343 17.4523 17.1643C18.1656 16.451 19.182 16.3131 19.9054 16.7168L21.0683 17.3658C22.1416 17.9648 22.3882 19.5745 21.2824 20.6804C20.5071 21.4557 19.6513 21.9598 18.7885 21.9925C17.0531 22.0583 14.0274 21.6298 10.948 18.5505C7.86864 15.4711 7.4402 12.4453 7.50599 10.71C7.5387 9.84722 8.04276 8.9914 8.81811 8.21605Z" fill="#4ADE80"/>
<path d="M18.75 6.99849C18.3358 6.99849 18 7.33428 18 7.74849C18 8.16271 18.3358 8.49849 18.75 8.49849H19.9393L17.2196 11.2182C16.9268 11.5111 16.9268 11.9859 17.2196 12.2788C17.5125 12.5717 17.9874 12.5717 18.2803 12.2788L21 9.55915V10.7485C21 11.1627 21.3358 11.4985 21.75 11.4985C22.1642 11.4985 22.5 11.1627 22.5 10.7485V7.74849C22.5 7.33428 22.1642 6.99849 21.75 6.99849H18.75Z" fill="#4ADE80"/>
</svg>
