<svg width="30" height="30" viewBox="0 0 30 30" fill="none" xmlns="http://www.w3.org/2000/svg">
<path fill-rule="evenodd" clip-rule="evenodd" d="M14.5122 7.43902C10.6045 7.43902 7.43902 10.6028 7.43902 14.5026C7.43902 18.4024 10.6045 21.5662 14.5122 21.5662C16.4618 21.5662 18.225 20.7801 19.5055 19.5055C20.7918 18.2251 21.5854 16.4574 21.5854 14.5026C21.5854 10.6028 18.4199 7.43902 14.5122 7.43902ZM5 14.5026C5 9.25314 9.26008 5 14.5122 5C19.7643 5 24.0244 9.25314 24.0244 14.5026C24.0244 16.6919 23.2822 18.7095 22.0374 20.3157L24.6423 22.9177C25.1188 23.3936 25.1193 24.1658 24.6433 24.6423C24.1673 25.1188 23.3952 25.1193 22.9187 24.6433L20.3094 22.037C18.7048 23.2706 16.6935 24.0052 14.5122 24.0052C9.26008 24.0052 5 19.7521 5 14.5026Z" fill="#494E51"/>
</svg>
