<svg width="30" height="30" viewBox="0 0 30 30" fill="none" xmlns="http://www.w3.org/2000/svg">
<path d="M24.631 13.8L21.2854 7.8C20.695 6.7 19.5141 6 18.3333 6H11.7405C10.4613 6 9.37884 6.7 8.78844 7.8L5.4428 13.8C4.8524 14.9 4.8524 16.2 5.4428 17.2L8.78844 23.2C9.37884 24.3 10.5597 25 11.7405 25H18.3333C19.6125 25 20.695 24.3 21.2854 23.2L24.631 17.2C25.123 16.2 25.123 14.8 24.631 13.8ZM14.9877 19.3C12.9213 19.3 11.2485 17.6 11.2485 15.5C11.2485 13.4 12.9213 11.7 14.9877 11.7C17.0541 11.7 18.7269 13.4 18.7269 15.5C18.7269 17.6 17.0541 19.3 14.9877 19.3Z" fill="#494E51"/>
</svg>
