<svg width="30" height="30" viewBox="0 0 30 30" fill="none" xmlns="http://www.w3.org/2000/svg">
<path d="M14.6834 18.9227L11.3537 21.1871C10.9541 21.4535 10.2882 21.0539 10.4214 20.5211L11.6201 16.7914C11.7533 16.525 11.6201 16.2586 11.3537 16.1254L8.29039 13.7277C7.75764 13.3281 8.02402 12.6621 8.55677 12.6621L12.5524 12.5289C12.8188 12.5289 12.952 12.3957 13.0851 12.1293L14.417 8.39961C14.5502 7.8668 15.3493 7.8668 15.4825 8.39961L16.8144 12.1293C16.9476 12.3957 17.0808 12.5289 17.3471 12.5289L21.3428 12.6621C21.8755 12.6621 22.1419 13.3281 21.7423 13.7277L18.5458 16.1254C18.4126 16.2586 18.2795 16.525 18.2795 16.7914L19.4781 20.6543C19.6113 21.1871 19.0786 21.5867 18.5458 21.3203L15.2161 19.0559C15.083 18.7895 14.8166 18.7895 14.6834 18.9227Z" fill="#667781"/>
</svg>
