<svg width="30" height="30" viewBox="0 0 30 30" fill="none" xmlns="http://www.w3.org/2000/svg">
<path d="M5 15C5 20.5228 9.47715 25 15 25C15.6477 25 16.2503 24.7004 16.7083 24.2424L24.2424 16.7083C24.7004 16.2503 25 15.6477 25 15C25 9.47715 20.5228 5 15 5C9.47715 5 5 9.47715 5 15Z" stroke="#3B82F6" stroke-width="1.5"/>
<path d="M15 20C13.8846 20 12.8504 19.6303 12 19" stroke="#3B82F6" stroke-width="1.5" stroke-linecap="round"/>
<ellipse cx="18" cy="13.5" rx="1" ry="1.5" fill="#3B82F6"/>
<ellipse cx="12" cy="13.5" rx="1" ry="1.5" fill="#3B82F6"/>
<path d="M15 25C15 22.2071 15 20.8107 15.3928 19.688C16.0964 17.6773 17.6773 16.0964 19.688 15.3928C20.8107 15 22.2071 15 25 15" stroke="#3B82F6" stroke-width="1.5"/>
</svg>
